<svg class="bob" font-family="arial" font-size="14" height="544" width="616" xmlns="http://www.w3.org/2000/svg">
<defs>
<marker id="triangle" markerHeight="8" markerWidth="8" orient="auto" refX="4" refY="2" viewBox="0 0 8 4">
<polygon fill="black" points="0,0 0,4 8,2 0,0"/>
</marker>
<marker id="clear_triangle" markerHeight="10" markerWidth="10" orient="auto" refX="1" refY="7" viewBox="0 0 20 14">
<polygon fill="none" points="2,2 2,12 18,7 2,2" stroke="black" stroke-width="2"/>
</marker>
<marker id="circle" markerHeight="5" markerWidth="5" orient="auto" refX="10" refY="10" viewBox="0 0 20 20">
<circle cx="10" cy="10" fill="black" r="8"/>
</marker>
<marker id="square" markerHeight="5" markerWidth="5" orient="auto" refX="10" refY="10" viewBox="0 0 20 20">
<rect fill="black" height="20" width="20" x="0" y="0"/>
</marker>
<marker id="open_circle" markerHeight="10" markerWidth="10" orient="auto" refX="10" refY="10" viewBox="0 0 20 20">
<circle cx="10" cy="10" fill="white" r="4" stroke="black" stroke-width="2"/>
</marker>
<marker id="big_open_circle" markerHeight="20" markerWidth="20" orient="auto" refX="20" refY="20" viewBox="0 0 40 40">
<circle cx="20" cy="20" fill="white" r="6" stroke="black" stroke-width="2"/>
</marker>
</defs>
<style type="text/css">

    line,path {
      stroke: black;
      stroke-width: 2;
      stroke-opacity: 1;
      fill-opacity: 1;
      stroke-linecap: round;
      stroke-linejoin: miter;
    }
    line.dashed {
        stroke-dasharray: 5;
    }
    circle.solid {
      fill:black;
      stroke: black;
      stroke-width: 2;
      stroke-opacity: 1;
      fill-opacity: 1;
      stroke-linecap: round;
      stroke-linejoin: miter;
    }
    circle.open {
      fill:none;
      stroke: black;
      stroke-width: 2;
      stroke-opacity: 1;
      fill-opacity: 1;
      stroke-linecap: round;
      stroke-linejoin: miter;
    }
    tspan.head{
        fill: none;
        stroke: none;
    }
    
</style>
<rect fill="white" height="544" width="616" x="0" y="0"/>
<g>
<line x1="28" x2="28" y1="492" y2="516"/>
<path d="M 28 516 A 4 4 0 0 0 32 520" fill="none"/>
<path d="M 32 488 A 4 4 0 0 0 28 492" fill="none"/>
</g>
<g>
<line x1="32" x2="104" y1="520" y2="520"/>
<path d="M 104 520 A 4 4 0 0 0 108 516" fill="none"/>
</g>
<g>
<line x1="36" x2="32" y1="488" y2="488"/>
<line x1="36" x2="36" y1="488" y2="480"/>
<line x1="36" x2="44" y1="488" y2="488"/>
<line x1="44" x2="44" y1="488" y2="480"/>
<line x1="44" x2="52" y1="488" y2="488"/>
<line x1="52" x2="52" y1="488" y2="480"/>
<line x1="52" x2="60" y1="488" y2="488"/>
<line x1="60" x2="60" y1="488" y2="480"/>
<line x1="60" x2="68" y1="488" y2="488"/>
<line x1="68" x2="68" y1="432" y2="488"/>
<line x1="68" x2="76" y1="488" y2="488"/>
<line x1="76" x2="76" y1="488" y2="480"/>
<line x1="76" x2="84" y1="488" y2="488"/>
<line x1="84" x2="84" y1="488" y2="480"/>
<line x1="84" x2="92" y1="488" y2="488"/>
<line x1="92" x2="92" y1="488" y2="480"/>
<line x1="92" x2="100" y1="488" y2="488"/>
<line x1="100" x2="100" y1="488" y2="480"/>
<line x1="100" x2="104" y1="488" y2="488"/>
<path d="M 108 492 A 4 4 0 0 0 104 488" fill="none"/>
</g>
<g>
<line x1="66" x2="66" y1="144" y2="176"/>
<line x1="66" x2="66" y1="176" y2="160"/>
</g>
<g>
<line x1="66" x2="66" y1="400" y2="432"/>
<line x1="66" x2="66" y1="432" y2="416"/>
</g>
<g>
<line marker-end="url(#triangle)" x1="68" x2="68" y1="80" y2="68"/>
<line marker-end="url(#square)" x1="68" x2="68" y1="80" y2="120"/>
<line marker-start="url(#square)" x1="68" x2="68" y1="120" y2="144"/>
</g>
<g>
<line marker-end="url(#square)" x1="68" x2="68" y1="176" y2="200"/>
<line marker-start="url(#square)" x1="68" x2="68" y1="200" y2="216"/>
<line x1="68" x2="64" y1="216" y2="216"/>
<line x1="68" x2="68" y1="216" y2="360"/>
<line x1="68" x2="72" y1="216" y2="216"/>
<line x1="68" x2="64" y1="360" y2="360"/>
<line marker-end="url(#square)" x1="68" x2="68" y1="360" y2="376"/>
<line x1="68" x2="72" y1="360" y2="360"/>
<line marker-start="url(#square)" x1="68" x2="68" y1="376" y2="400"/>
</g>
<g>
<line x1="70" x2="70" y1="144" y2="176"/>
<line x1="70" x2="70" y1="176" y2="160"/>
</g>
<g>
<line x1="70" x2="70" y1="400" y2="432"/>
<line x1="70" x2="70" y1="432" y2="416"/>
</g>
<g>
<line marker-end="url(#triangle)" marker-start="url(#square)" x1="84" x2="84" y1="120" y2="172"/>
</g>
<g>
<line marker-end="url(#triangle)" marker-start="url(#square)" x1="84" x2="84" y1="200" y2="284"/>
</g>
<g>
<line marker-end="url(#triangle)" marker-start="url(#square)" x1="84" x2="84" y1="376" y2="428"/>
</g>
<g>
<line x1="104" x2="106" y1="160" y2="164"/>
<path d="M 104 144 A 16 16 0 0 0 104 160" fill="none"/>
<path d="M 106 164 A 8 8 0 0 0 112 168" fill="none"/>
</g>
<g>
<line x1="104" x2="106" y1="240" y2="244"/>
<path d="M 104 224 A 16 16 0 0 0 104 240" fill="none"/>
<path d="M 106 244 A 8 8 0 0 0 112 248" fill="none"/>
</g>
<g>
<line x1="104" x2="106" y1="416" y2="420"/>
<path d="M 104 400 A 16 16 0 0 0 104 416" fill="none"/>
<path d="M 106 420 A 8 8 0 0 0 112 424" fill="none"/>
</g>
<g>
<line x1="106" x2="104" y1="140" y2="144"/>
<path d="M 112 136 A 8 8 0 0 0 106 140" fill="none"/>
</g>
<g>
<line x1="106" x2="104" y1="220" y2="224"/>
<path d="M 112 216 A 8 8 0 0 0 106 220" fill="none"/>
</g>
<g>
<line x1="106" x2="104" y1="396" y2="400"/>
<path d="M 112 392 A 8 8 0 0 0 106 396" fill="none"/>
</g>
<g>
<line x1="108" x2="108" y1="492" y2="516"/>
</g>
<g>
<line x1="112" x2="120" y1="136" y2="136"/>
<path d="M 126 140 A 8 8 0 0 0 120 136" fill="none"/>
</g>
<g>
<line x1="112" x2="120" y1="168" y2="168"/>
<path d="M 120 168 A 8 8 0 0 0 126 164" fill="none"/>
</g>
<g>
<line x1="112" x2="120" y1="216" y2="216"/>
<path d="M 126 220 A 8 8 0 0 0 120 216" fill="none"/>
</g>
<g>
<line x1="112" x2="120" y1="248" y2="248"/>
<path d="M 120 248 A 8 8 0 0 0 126 244" fill="none"/>
</g>
<g>
<line x1="112" x2="120" y1="392" y2="392"/>
<path d="M 126 396 A 8 8 0 0 0 120 392" fill="none"/>
</g>
<g>
<line x1="112" x2="120" y1="424" y2="424"/>
<path d="M 120 424 A 8 8 0 0 0 126 420" fill="none"/>
</g>
<g>
<line x1="126" x2="128" y1="140" y2="144"/>
<path d="M 128 160 A 16 16 0 0 0 128 144" fill="none"/>
</g>
<g>
<line x1="126" x2="128" y1="164" y2="160"/>
</g>
<g>
<line x1="126" x2="128" y1="220" y2="224"/>
<path d="M 128 240 A 16 16 0 0 0 128 224" fill="none"/>
</g>
<g>
<line x1="126" x2="128" y1="244" y2="240"/>
</g>
<g>
<line x1="126" x2="128" y1="396" y2="400"/>
<path d="M 128 416 A 16 16 0 0 0 128 400" fill="none"/>
</g>
<g>
<line x1="126" x2="128" y1="420" y2="416"/>
</g>
<g>
<line marker-end="url(#triangle)" x1="160" x2="212" y1="504" y2="504"/>
</g>
<g>
<line x1="348" x2="348" y1="492" y2="516"/>
<path d="M 348 516 A 4 4 0 0 0 352 520" fill="none"/>
<path d="M 352 488 A 4 4 0 0 0 348 492" fill="none"/>
</g>
<g>
<line x1="352" x2="424" y1="520" y2="520"/>
<path d="M 424 520 A 4 4 0 0 0 428 516" fill="none"/>
</g>
<g>
<line x1="356" x2="352" y1="488" y2="488"/>
<line x1="356" x2="356" y1="488" y2="480"/>
<line x1="356" x2="364" y1="488" y2="488"/>
<line x1="364" x2="364" y1="488" y2="480"/>
<line x1="364" x2="372" y1="488" y2="488"/>
<line x1="372" x2="372" y1="488" y2="480"/>
<line x1="372" x2="380" y1="488" y2="488"/>
<line x1="380" x2="380" y1="488" y2="480"/>
<line x1="380" x2="388" y1="488" y2="488"/>
<line marker-start="url(#square)" x1="388" x2="388" y1="376" y2="488"/>
<line x1="388" x2="396" y1="488" y2="488"/>
<line x1="396" x2="396" y1="488" y2="480"/>
<line x1="396" x2="404" y1="488" y2="488"/>
<line x1="404" x2="404" y1="488" y2="480"/>
<line x1="404" x2="412" y1="488" y2="488"/>
<line x1="412" x2="412" y1="488" y2="480"/>
<line x1="412" x2="420" y1="488" y2="488"/>
<line x1="420" x2="420" y1="488" y2="480"/>
<line x1="420" x2="424" y1="488" y2="488"/>
<path d="M 428 492 A 4 4 0 0 0 424 488" fill="none"/>
</g>
<g>
<line marker-end="url(#triangle)" x1="388" x2="388" y1="80" y2="68"/>
<line marker-end="url(#square)" x1="388" x2="388" y1="80" y2="120"/>
<line marker-end="url(#square)" marker-start="url(#square)" x1="388" x2="388" y1="120" y2="200"/>
<line marker-start="url(#square)" x1="388" x2="388" y1="200" y2="216"/>
<line x1="388" x2="384" y1="216" y2="216"/>
<line x1="388" x2="388" y1="216" y2="360"/>
<line x1="388" x2="392" y1="216" y2="216"/>
<line x1="388" x2="384" y1="360" y2="360"/>
<line marker-end="url(#square)" x1="388" x2="388" y1="360" y2="376"/>
<line x1="388" x2="392" y1="360" y2="360"/>
</g>
<g>
<line marker-end="url(#triangle)" marker-start="url(#square)" x1="404" x2="404" y1="200" y2="284"/>
</g>
<g>
<line x1="424" x2="426" y1="240" y2="244"/>
<path d="M 424 224 A 16 16 0 0 0 424 240" fill="none"/>
<path d="M 426 244 A 8 8 0 0 0 432 248" fill="none"/>
</g>
<g>
<line x1="426" x2="424" y1="220" y2="224"/>
<path d="M 432 216 A 8 8 0 0 0 426 220" fill="none"/>
</g>
<g>
<line x1="428" x2="428" y1="492" y2="516"/>
</g>
<g>
<line x1="432" x2="440" y1="216" y2="216"/>
<path d="M 446 220 A 8 8 0 0 0 440 216" fill="none"/>
</g>
<g>
<line x1="432" x2="440" y1="248" y2="248"/>
<path d="M 440 248 A 8 8 0 0 0 446 244" fill="none"/>
</g>
<g>
<line x1="446" x2="448" y1="220" y2="224"/>
<path d="M 448 240 A 16 16 0 0 0 448 224" fill="none"/>
</g>
<g>
<line x1="446" x2="448" y1="244" y2="240"/>
</g>
<g>
<text x="33" y="508">
Flow
</text>
</g>
<g>
<text x="57" y="28">
Illumina
</text>
</g>
<g>
<text x="73" y="460">
5′
</text>
</g>
<g>
<text x="73" y="508">
Cell
</text>
</g>
<g>
<text x="81" y="76">
3′
</text>
</g>
<g>
<text x="113" y="156">
3
</text>
</g>
<g>
<text x="113" y="236">
1
</text>
</g>
<g>
<text x="113" y="412">
2
</text>
</g>
<g>
<text x="129" y="28">
Paired-End
</text>
</g>
<g>
<text x="145" y="412">
IndexRead#1
</text>
</g>
<g>
<text x="145" y="428">
SequencingPrimer
</text>
</g>
<g>
<text x="153" y="156">
IndexRead#2
</text>
</g>
<g>
<text x="153" y="172">
BridgeOligo
</text>
</g>
<g>
<text x="153" y="236">
TemplateRead#1
</text>
</g>
<g>
<text x="153" y="252">
SequencingPrimer#1
</text>
</g>
<g>
<text x="217" y="28">
Sequencing
</text>
</g>
<g>
<text x="225" y="508">
ClusterFlip
</text>
</g>
<g>
<text x="305" y="28">
Schematic
</text>
</g>
<g>
<text x="353" y="508">
Flow
</text>
</g>
<g>
<text x="393" y="460">
5′
</text>
</g>
<g>
<text x="393" y="508">
Cell
</text>
</g>
<g>
<text x="401" y="76">
3′
</text>
</g>
<g>
<text x="433" y="236">
4
</text>
</g>
<g>
<text x="473" y="236">
TemplateRead#2
</text>
</g>
<g>
<text x="473" y="252">
SequencingPrimer#2
</text>
</g>
<g>
<line marker-end="url(#triangle)" marker-start="url(#open_circle)" x1="20" x2="36" y1="24" y2="24"/>
</g>
</svg>
