<svg class="bob" font-family="arial" font-size="14" height="288" width="632" xmlns="http://www.w3.org/2000/svg">
<defs>
<marker id="triangle" markerHeight="8" markerWidth="8" orient="auto" refX="4" refY="2" viewBox="0 0 8 4">
<polygon fill="black" points="0,0 0,4 8,2 0,0"/>
</marker>
<marker id="clear_triangle" markerHeight="10" markerWidth="10" orient="auto" refX="1" refY="7" viewBox="0 0 20 14">
<polygon fill="none" points="2,2 2,12 18,7 2,2" stroke="black" stroke-width="2"/>
</marker>
<marker id="circle" markerHeight="5" markerWidth="5" orient="auto" refX="10" refY="10" viewBox="0 0 20 20">
<circle cx="10" cy="10" fill="black" r="8"/>
</marker>
<marker id="square" markerHeight="5" markerWidth="5" orient="auto" refX="10" refY="10" viewBox="0 0 20 20">
<rect fill="black" height="20" width="20" x="0" y="0"/>
</marker>
<marker id="open_circle" markerHeight="10" markerWidth="10" orient="auto" refX="10" refY="10" viewBox="0 0 20 20">
<circle cx="10" cy="10" fill="white" r="4" stroke="black" stroke-width="2"/>
</marker>
<marker id="big_open_circle" markerHeight="20" markerWidth="20" orient="auto" refX="20" refY="20" viewBox="0 0 40 40">
<circle cx="20" cy="20" fill="white" r="6" stroke="black" stroke-width="2"/>
</marker>
</defs>
<style type="text/css">

    line,path {
      stroke: black;
      stroke-width: 2;
      stroke-opacity: 1;
      fill-opacity: 1;
      stroke-linecap: round;
      stroke-linejoin: miter;
    }
    line.dashed {
        stroke-dasharray: 5;
    }
    circle.solid {
      fill:black;
      stroke: black;
      stroke-width: 2;
      stroke-opacity: 1;
      fill-opacity: 1;
      stroke-linecap: round;
      stroke-linejoin: miter;
    }
    circle.open {
      fill:none;
      stroke: black;
      stroke-width: 2;
      stroke-opacity: 1;
      fill-opacity: 1;
      stroke-linecap: round;
      stroke-linejoin: miter;
    }
    tspan.head{
        fill: none;
        stroke: none;
    }
    
</style>
<rect fill="white" height="288" width="632" x="0" y="0"/>
<g>
<line x1="32" x2="64" y1="104" y2="104"/>
</g>
<g>
<line x1="32" x2="64" y1="120" y2="120"/>
</g>
<g>
<line x1="32" x2="64" y1="184" y2="184"/>
</g>
<g>
<line x1="32" x2="64" y1="200" y2="200"/>
</g>
<g>
<line x1="32" x2="64" y1="264" y2="264"/>
</g>
<g>
<line x1="32" x2="64" y1="280" y2="280"/>
</g>
<g>
<line x1="148" x2="148" y1="64" y2="80"/>
</g>
<g>
<line x1="160" x2="304" y1="104" y2="104"/>
</g>
<g>
<line x1="160" x2="304" y1="120" y2="120"/>
</g>
<g>
<line x1="160" x2="304" y1="184" y2="184"/>
</g>
<g>
<line x1="160" x2="304" y1="200" y2="200"/>
</g>
<g>
<line x1="160" x2="304" y1="264" y2="264"/>
</g>
<g>
<line x1="160" x2="304" y1="280" y2="280"/>
</g>
<g>
<line x1="164" x2="164" y1="224" y2="240"/>
</g>
<g>
<line x1="236" x2="236" y1="144" y2="160"/>
</g>
<g>
<line x1="360" x2="504" y1="104" y2="104"/>
</g>
<g>
<line x1="360" x2="504" y1="120" y2="120"/>
</g>
<g>
<line x1="360" x2="504" y1="184" y2="184"/>
</g>
<g>
<line x1="360" x2="504" y1="200" y2="200"/>
</g>
<g>
<line x1="360" x2="504" y1="264" y2="264"/>
</g>
<g>
<line x1="360" x2="504" y1="280" y2="280"/>
</g>
<g>
<line x1="600" x2="632" y1="104" y2="104"/>
</g>
<g>
<line x1="600" x2="632" y1="120" y2="120"/>
</g>
<g>
<line x1="600" x2="632" y1="184" y2="184"/>
</g>
<g>
<line x1="600" x2="632" y1="200" y2="200"/>
</g>
<g>
<line x1="600" x2="632" y1="264" y2="264"/>
</g>
<g>
<line x1="600" x2="632" y1="280" y2="280"/>
</g>
<g>
<text x="33" y="76">
Tandem
</text>
</g>
<g>
<text x="33" y="156">
Tandem
</text>
</g>
<g>
<text x="33" y="236">
Distinct
</text>
</g>
<g>
<text x="57" y="28">
Illumina
</text>
</g>
<g>
<text x="73" y="108">
AGCGCTAG
</text>
</g>
<g>
<text x="73" y="124">
TCGCGATC
</text>
</g>
<g>
<text x="73" y="188">
AGCGCTAG
</text>
</g>
<g>
<text x="73" y="204">
TCGCGATC
</text>
</g>
<g>
<text x="73" y="268">
AGCGCTAG
</text>
</g>
<g>
<text x="73" y="284">
TCGCGATC
</text>
</g>
<g>
<text x="89" y="76">
Design
</text>
</g>
<g>
<text x="89" y="156">
Complement
</text>
</g>
<g>
<text x="105" y="236">
Design
</text>
</g>
<g>
<text x="129" y="28">
Index
</text>
</g>
<g>
<text x="161" y="76">
same
</text>
</g>
<g>
<text x="177" y="28">
Pair
</text>
</g>
<g>
<text x="177" y="156">
Design
</text>
</g>
<g>
<text x="177" y="236">
unrelated
</text>
</g>
<g>
<text x="201" y="76">
index
</text>
</g>
<g>
<text x="217" y="28">
Designs
</text>
</g>
<g>
<text x="249" y="76">
on
</text>
</g>
<g>
<text x="249" y="156">
reverse
</text>
</g>
<g>
<text x="257" y="236">
index
</text>
</g>
<g>
<text x="273" y="76">
either
</text>
</g>
<g>
<text x="305" y="236">
sequences
</text>
</g>
<g>
<text x="313" y="108">
Insert
</text>
</g>
<g>
<text x="313" y="124">
Insert
</text>
</g>
<g>
<text x="313" y="156">
complement
</text>
</g>
<g>
<text x="313" y="188">
Insert
</text>
</g>
<g>
<text x="313" y="204">
Insert
</text>
</g>
<g>
<text x="313" y="268">
Insert
</text>
</g>
<g>
<text x="313" y="284">
Insert
</text>
</g>
<g>
<text x="329" y="76">
side
</text>
</g>
<g>
<text x="369" y="76">
of
</text>
</g>
<g>
<text x="393" y="76">
insert
</text>
</g>
<g>
<text x="401" y="156">
of
</text>
</g>
<g>
<text x="425" y="156">
same
</text>
</g>
<g>
<text x="465" y="156">
index
</text>
</g>
<g>
<text x="513" y="108">
AGCGCTAG
</text>
</g>
<g>
<text x="513" y="124">
TCGCGATC
</text>
</g>
<g>
<text x="513" y="188">
CTAGCGCT
</text>
</g>
<g>
<text x="513" y="204">
GATCGCGA
</text>
</g>
<g>
<text x="513" y="268">
CGTCTGCG
</text>
</g>
<g>
<text x="513" y="284">
GCAGACGC
</text>
</g>
<g>
<line marker-end="url(#triangle)" marker-start="url(#open_circle)" x1="20" x2="36" y1="24" y2="24"/>
</g>
</svg>
